<svg xmlns="http://www.w3.org/2000/svg" viewBox="0 0 86.67 86.67"><defs><style>.cls-1{fill:#f04e37;}.cls-2{fill:none;stroke:#f04e37;stroke-miterlimit:10;stroke-width:4px;}</style></defs><title>circle-logo</title><g id="Layer_2" data-name="Layer 2"><g id="Layer_1-2" data-name="Layer 1"><path class="cls-1" d="M54.8,14.51l-2.55,4.76.69,1.23L43.87,47.79l5.76,15.71a5.07,5.07,0,0,1,.13,1.81l4.35-44.57,1.13-.85Z"/><path class="cls-1" d="M48.4,64.33,33.75,28.78l.63-1.26L31.59,22.9l-.16,5.39,1.17.79L38.3,67a5.22,5.22,0,1,0,10.1-2.65Zm-5.14,3.19a1.59,1.59,0,1,1,1.59-1.59A1.59,1.59,0,0,1,43.25,67.51Z"/><circle class="cls-2" cx="43.33" cy="43.33" r="41.33"/></g></g></svg>