<?xml version="1.0" encoding="utf-8"?>
<!-- Generator: Adobe Illustrator 21.1.0, SVG Export Plug-In . SVG Version: 6.00 Build 0)  -->
<svg version="1.1" id="Layer_1" xmlns="http://www.w3.org/2000/svg" xmlns:xlink="http://www.w3.org/1999/xlink" x="0px" y="0px"
	 viewBox="0 0 724 177" style="enable-background:new 0 0 724 177;" xml:space="preserve">
<style type="text/css">
	.st0{fill:#F04E38;}
	.st1{clip-path:url(#SVGID_2_);fill:none;stroke:#FFFFFF;stroke-width:1.86;}
	.st2{clip-path:url(#SVGID_4_);fill:#F04E37;}
	.st3{clip-path:url(#SVGID_4_);fill:#FFFFFF;}
	.st4{clip-path:url(#SVGID_4_);fill:none;stroke:#F04E37;stroke-width:5.68;stroke-miterlimit:10;}
	.st5{clip-path:url(#SVGID_4_);fill:none;stroke:#FFFFFF;stroke-width:5.68;stroke-miterlimit:10;}
	.st6{clip-path:url(#SVGID_6_);fill:#FFFFFF;}
</style>
<rect class="st0" width="724" height="177"/>
<g>
	<defs>
		<rect id="SVGID_1_" width="724" height="177"/>
	</defs>
	<clipPath id="SVGID_2_">
		<use xlink:href="#SVGID_1_"  style="overflow:visible;"/>
	</clipPath>
	<polyline class="st1" points="334.8,-1.5 243.6,89.8 334.8,181.2 	"/>
</g>
<g>
	<defs>
		<rect id="SVGID_3_" x="56.2" y="10.1" width="176.1" height="141.1"/>
	</defs>
	<clipPath id="SVGID_4_">
		<use xlink:href="#SVGID_3_"  style="overflow:visible;"/>
	</clipPath>
	<path class="st2" d="M-60.2-208.6l-4.5,8.3l1.2,2.2l-15.9,47.7l10.1,27.5c0.3,1.1,0.3,2.1,0.2,3.2l7.6-77.9l2-1.5L-60.2-208.6z"/>
	<path class="st2" d="M-71.4-121.5L-97-183.6l1.1-2.2l-4.9-8.1l-0.3,9.4l2.1,1.4l10,66.2c1.3,4.9,6.3,7.8,11.1,6.5
		C-73-111.7-70.1-116.6-71.4-121.5 M-80.4-115.9c-1.5,0-2.8-1.2-2.8-2.8c0-1.5,1.2-2.8,2.8-2.8c1.5,0,2.8,1.2,2.8,2.8
		C-77.6-117.2-78.8-115.9-80.4-115.9"/>
	<path class="st3" d="M67.6-208.6l-4.5,8.3l1.2,2.2l-15.9,47.7l10.1,27.5c0.3,1.1,0.3,2.1,0.2,3.2l7.6-77.9l2-1.5L67.6-208.6z"/>
	<path class="st3" d="M56.4-121.5l-25.6-62.1l1.1-2.2l-4.9-8.1l-0.3,9.4l2.1,1.4l10,66.2c1.3,4.9,6.3,7.8,11.1,6.5
		C54.8-111.7,57.7-116.6,56.4-121.5 M47.4-115.9c-1.5,0-2.8-1.2-2.8-2.8c0-1.5,1.2-2.8,2.8-2.8c1.5,0,2.8,1.2,2.8,2.8
		C50.2-117.2,49-115.9,47.4-115.9"/>
	<path class="st2" d="M-56.3,45.9l-3.6,6.8l1,1.8l-12.9,38.8l8.2,22.3c0.2,0.9,0.3,1.7,0.2,2.6l6.2-63.3l1.6-1.2L-56.3,45.9z"/>
	<path class="st2" d="M-65.4,116.6l-20.8-50.5l0.9-1.8l-4-6.6l-0.2,7.7l1.7,1.1l8.1,53.8c1,4,5.1,6.3,9,5.3
		C-66.7,124.7-64.4,120.6-65.4,116.6 M-72.7,121.2c-1.2,0-2.3-1-2.3-2.3c0-1.2,1-2.3,2.3-2.3c1.3,0,2.3,1,2.3,2.3
		C-70.5,120.2-71.5,121.2-72.7,121.2"/>
	<circle class="st4" cx="-72.6" cy="86.8" r="58.7"/>
	<path class="st3" d="M159.5,45.9l-3.6,6.8l1,1.8L144,93.2l8.2,22.3c0.2,0.9,0.3,1.7,0.2,2.6l6.2-63.3l1.6-1.2L159.5,45.9z"/>
	<path class="st3" d="M150.4,116.6l-20.8-50.5l0.9-1.8l-4-6.6l-0.2,7.7l1.7,1.1l8.1,53.8c1,4,5.1,6.3,9,5.3
		C149.1,124.7,151.5,120.6,150.4,116.6 M143.1,121.2c-1.2,0-2.3-1-2.3-2.3c0-1.2,1-2.3,2.3-2.3c1.3,0,2.3,1,2.3,2.3
		C145.4,120.2,144.4,121.2,143.1,121.2"/>
	<circle class="st5" cx="143.2" cy="86.8" r="58.7"/>
</g>
<g>
	<defs>
		<rect id="SVGID_5_" width="724" height="177"/>
	</defs>
	<clipPath id="SVGID_6_">
		<use xlink:href="#SVGID_5_"  style="overflow:visible;"/>
	</clipPath>
	<path class="st6" d="M636.6,126.5h2.6l5.8-27.9v-1.3h-11.5v2.1h8.8L636.6,126.5z M621.9,126.5h2.7V97.4h-2.1
		c-0.6,0.8-1.3,1.5-2.3,2.1c-1,0.6-1.9,1-2.7,1.2v2.1c2.6-0.7,4.1-1.4,4.5-1.9V126.5z M603.7,124.8c-1.4,0-2.5-0.5-3.2-1.5
		c-0.7-1-1.1-2.5-1.1-4.6c0-1.9,0.3-3.4,1-4.5c0.7-1.1,1.8-1.7,3.3-1.8c2.8,0.2,4.2,2.3,4.2,6.3c0,2.1-0.3,3.6-1,4.6
		C606.2,124.3,605.2,124.8,603.7,124.8 M603.7,110c-1.4-0.1-2.5-0.6-3.1-1.6c-0.6-1-0.9-2.4-0.9-4.1c0-1.7,0.3-3,1-3.9
		c0.6-0.9,1.6-1.3,3-1.3c1.3,0,2.3,0.4,3,1.3c0.6,0.9,1,2.1,1,3.9C607.7,108,606.3,109.9,603.7,110 M603.7,126.9
		c4.6,0,6.8-2.7,6.8-8.2c0-1.6-0.2-2.9-0.6-3.9c-0.4-1-0.9-1.7-1.5-2.2c-0.6-0.5-1.3-1-2.1-1.4c2.6-1.1,3.9-3.3,3.9-6.8
		c0-2.3-0.5-4.1-1.6-5.4s-2.7-2-5-2c-2.3,0-3.9,0.7-5,2c-1.1,1.3-1.6,3.1-1.6,5.3c0,1.8,0.3,3.2,1,4.4c0.7,1.1,1.7,2,2.9,2.5
		c-0.8,0.4-1.5,0.9-2.1,1.4c-0.6,0.5-1.1,1.3-1.5,2.2c-0.4,1-0.6,2.3-0.6,3.9c0,2.6,0.5,4.6,1.6,6
		C599.6,126.2,601.3,126.9,603.7,126.9 M585.5,126.5h2.7V97.4H586c-0.6,0.8-1.3,1.5-2.3,2.1c-1,0.6-1.9,1-2.7,1.2v2.1
		c2.6-0.7,4.1-1.4,4.5-1.9V126.5z M571.7,126.5h2.8v-4h-2.8V126.5z M560,126.5h2.7V97.4h-2.1c-0.6,0.8-1.3,1.5-2.3,2.1
		c-1,0.6-1.9,1-2.7,1.2v2.1c2.6-0.7,4.1-1.4,4.5-1.9V126.5z M542,126.8c2.4,0,4.1-0.8,5.2-2.5c1.1-1.7,1.6-4.1,1.6-7.4
		c0-2.9-0.5-5.2-1.4-6.7c-0.9-1.5-2.4-2.3-4.5-2.3c-1.9,0-3.4,0.6-4.5,1.9l0.1-10.1h9l0-2.5h-11.3v15.1h2.2c1-1.6,2.2-2.4,3.8-2.4
		c1,0,1.8,0.2,2.4,0.7c0.6,0.5,1,1.2,1.3,2.3c0.3,1,0.4,2.5,0.4,4.3c0,2.6-0.3,4.5-0.8,5.7c-0.6,1.2-1.6,1.7-3.2,1.7
		c-1.5,0-2.5-0.5-3.1-1.4c-0.6-1-0.9-2.4-0.9-4.3h-2.6c0,2.6,0.5,4.6,1.5,5.9C538.1,126.2,539.7,126.8,542,126.8 M522.6,124.8
		c-1.4,0-2.5-0.5-3.2-1.5c-0.7-1-1.1-2.5-1.1-4.6c0-1.9,0.3-3.4,1-4.5c0.7-1.1,1.8-1.7,3.3-1.8c2.8,0.2,4.2,2.3,4.2,6.3
		c0,2.1-0.3,3.6-1,4.6C525.1,124.3,524,124.8,522.6,124.8 M522.6,110c-1.4-0.1-2.5-0.6-3.1-1.6s-0.9-2.4-0.9-4.1c0-1.7,0.3-3,1-3.9
		c0.6-0.9,1.6-1.3,3-1.3c1.3,0,2.3,0.4,3,1.3c0.6,0.9,1,2.1,1,3.9C526.5,108,525.2,109.9,522.6,110 M522.6,126.9
		c4.6,0,6.8-2.7,6.8-8.2c0-1.6-0.2-2.9-0.6-3.9c-0.4-1-0.9-1.7-1.5-2.2c-0.6-0.5-1.3-1-2.1-1.4c2.6-1.1,3.9-3.3,3.9-6.8
		c0-2.3-0.5-4.1-1.6-5.4s-2.7-2-5-2c-2.3,0-3.9,0.7-5,2c-1.1,1.3-1.6,3.1-1.6,5.3c0,1.8,0.3,3.2,1,4.4s1.7,2,2.9,2.5
		c-0.8,0.4-1.5,0.9-2.1,1.4c-0.6,0.5-1.1,1.3-1.5,2.2c-0.4,1-0.6,2.3-0.6,3.9c0,2.6,0.5,4.6,1.6,6
		C518.4,126.2,520.2,126.9,522.6,126.9 M507.7,126.5h2.8v-4h-2.8V126.5z M493.4,126.5h2.6l5.8-27.9v-1.3h-11.5v2.1h8.8L493.4,126.5z
		 M470.6,126.5h13.2v-2.2h-10.1l7.3-11c0.8-1.2,1.4-2.2,1.9-3s0.8-1.7,1.1-2.6c0.3-1,0.5-2,0.5-3.1c0-2.4-0.6-4.2-1.7-5.5
		c-1.1-1.3-2.8-1.9-4.9-1.9c-2.4,0-4.2,0.7-5.3,2.1c-1.1,1.4-1.7,3.4-1.7,6.2v0.7h2.6v-0.6c0-1.9,0.3-3.4,1-4.5
		c0.6-1.1,1.8-1.6,3.5-1.6c1.3,0,2.3,0.4,2.9,1.3c0.6,0.9,1,2.1,1,3.7c0,1.4-0.2,2.7-0.7,3.7c-0.5,1.1-1.2,2.4-2.2,3.9
		c0,0.1-0.1,0.2-0.2,0.3c-0.1,0.1-0.2,0.3-0.3,0.4l-7.8,12V126.5z M456.7,126.5h2.6l5.8-27.9v-1.3h-11.5v2.1h8.8L456.7,126.5z"/>
	<path class="st6" d="M642,83.3h2.8v-3.2H642V83.3z M642.9,77.1h0.9l1-22.9H642L642.9,77.1z M625.7,88.5h0.7c1.8,0,3.1-0.3,4.1-0.9
		c0.9-0.6,1.6-1.5,1.9-2.8l5-22.3h-2.7l-3.5,17.7l-3.6-17.7H625c0,0,0.3,1.6,1,4.6c0.5,2.3,1.1,4.7,1.7,7.2c0.6,2.5,1.1,4.7,1.5,6.6
		l0.2,0.8c0.2,1,0.4,1.7,0.4,2.1c0,0.2,0,0.4,0,0.7c0,0.7-0.3,1.3-0.9,1.6c-0.6,0.3-1.7,0.5-3.3,0.5V88.5z M614.6,81.4
		c-0.7,0-1.3-0.3-1.7-0.8c-0.4-0.5-0.7-1.3-0.7-2.3c0-1,0.2-1.7,0.6-2.3c0.4-0.6,0.9-1.1,1.6-1.6c0.7-0.4,1.9-1.1,3.6-2v6.5
		c-0.4,0.7-0.8,1.3-1.4,1.7C616,81.2,615.3,81.4,614.6,81.4 M613.8,83.6c1,0,1.9-0.3,2.7-0.9s1.3-1.4,1.6-2.3l0.4,2.9h2.3
		c0-0.4-0.1-1-0.1-1.8c0-0.9-0.1-1.6-0.1-2.3V69.1c0-2.4-0.4-4.1-1.2-5.2c-0.8-1.1-2.1-1.7-3.9-1.7c-1.8,0-3.2,0.4-4.1,1.3
		c-0.9,0.9-1.4,2.3-1.5,4.3l0,0.6l2.6,0.1v-0.8c0-2.4,1-3.6,2.9-3.6c0.7,0,1.2,0.2,1.6,0.5c0.4,0.3,0.6,0.8,0.8,1.5
		c0.2,0.7,0.2,1.7,0.2,3v1.5c-2.3,1-4,1.9-5.1,2.6c-1.1,0.7-2,1.5-2.5,2.4c-0.5,0.9-0.8,2-0.8,3.4c0,1.3,0.4,2.4,1.2,3.3
		S612.5,83.6,613.8,83.6 M598.7,81.6c-1.2,0-1.9-0.5-2.3-1.5c-0.4-1-0.6-2.6-0.6-4.9v-4.9c0-2.1,0.2-3.6,0.6-4.6
		c0.4-0.9,1.1-1.4,2.2-1.4c1,0,2,0.5,3.1,1.5v14.5C600.7,81.1,599.7,81.6,598.7,81.6 M598.1,83.6c1.3,0,2.5-0.6,3.6-1.8v1.5h2.6
		V54.2h-2.6V64c-1.1-1.2-2.3-1.8-3.7-1.8c-1.9,0-3.2,0.7-3.9,2.2c-0.7,1.5-1,3.7-1,6.7v3.9c0,3.1,0.4,5.4,1.2,6.7
		C595.1,83,596.3,83.6,598.1,83.6 M582.5,81.7c-0.9,0-1.5-0.2-1.9-0.7s-0.7-1.1-0.8-1.9c-0.1-0.8-0.2-1.8-0.2-3.2v-6
		c0-1.3,0.1-2.4,0.2-3.2s0.4-1.4,0.8-1.9s1.1-0.7,1.9-0.7s1.5,0.2,1.9,0.7c0.4,0.5,0.7,1.1,0.8,1.9c0.1,0.8,0.2,1.8,0.2,3.2v6
		c0,1.3-0.1,2.4-0.2,3.2s-0.4,1.4-0.8,1.9C584,81.4,583.4,81.7,582.5,81.7 M582.5,83.6c2.1,0,3.5-0.6,4.3-1.9
		c0.8-1.3,1.2-3.3,1.2-5.9V70c0-2.7-0.4-4.6-1.2-5.9c-0.8-1.3-2.3-1.9-4.3-1.9c-2.1,0-3.5,0.6-4.3,1.9c-0.8,1.3-1.2,3.3-1.2,5.9v5.8
		c0,2.7,0.4,4.6,1.2,5.9C579,83,580.5,83.6,582.5,83.6 M565.6,83.3h2.7v-27h5.7v-2.1h-14.3v2.1h5.9V83.3z M544.1,83.3h2.6V54.2h-2.6
		V83.3z M535,83.3h2.6V54.2H535V83.3z M523,81.4c-0.7,0-1.3-0.3-1.7-0.8c-0.4-0.5-0.7-1.3-0.7-2.3c0-1,0.2-1.7,0.6-2.3
		c0.4-0.6,0.9-1.1,1.6-1.6c0.7-0.4,1.9-1.1,3.6-2v6.5c-0.4,0.7-0.8,1.3-1.4,1.7C524.4,81.2,523.7,81.4,523,81.4 M522.2,83.6
		c1,0,1.9-0.3,2.7-0.9c0.8-0.6,1.3-1.4,1.6-2.3l0.4,2.9h2.3c0-0.4-0.1-1-0.1-1.8c0-0.9-0.1-1.6-0.1-2.3V69.1c0-2.4-0.4-4.1-1.2-5.2
		c-0.8-1.1-2.1-1.7-3.9-1.7c-1.8,0-3.2,0.4-4.1,1.3s-1.4,2.3-1.5,4.3l0,0.6l2.6,0.1v-0.8c0-2.4,1-3.6,2.9-3.6c0.7,0,1.2,0.2,1.6,0.5
		c0.4,0.3,0.6,0.8,0.8,1.5c0.2,0.7,0.2,1.7,0.2,3v1.5c-2.3,1-4,1.9-5.1,2.6c-1.1,0.7-2,1.5-2.5,2.4c-0.5,0.9-0.8,2-0.8,3.4
		c0,1.3,0.4,2.4,1.2,3.3C519.9,83.2,520.9,83.6,522.2,83.6 M506.1,83.7c2.5,0,4.3-0.8,5.4-2.3c1-1.5,1.5-3.7,1.5-6.4v-1.7h-2.6v1.9
		c0,2.1-0.3,3.7-0.9,4.8c-0.6,1-1.7,1.6-3.4,1.6c-1.7,0-2.9-0.5-3.6-1.5c-0.7-1-1-2.7-1-4.9V62.6c0-1.4,0.1-2.6,0.4-3.5
		c0.2-0.9,0.7-1.7,1.4-2.2c0.7-0.5,1.6-0.8,2.9-0.8c1.2,0,2.1,0.2,2.7,0.7c0.6,0.5,1,1.2,1.3,2c0.2,0.9,0.3,2,0.3,3.4v1.7h2.6v-1.8
		c0-2.7-0.5-4.7-1.6-6.2c-1.1-1.4-2.8-2.1-5.3-2.1c-2.7,0-4.6,0.8-5.7,2.4c-1.1,1.6-1.6,3.8-1.6,6.8v11.6c0,2.9,0.5,5.1,1.6,6.7
		C501.5,82.9,503.4,83.7,506.1,83.7 M481.7,87.5c0.9-0.5,1.6-1,1.9-1.7c0.4-0.7,0.6-1.6,0.6-2.8v-3.6h-2.9v3.9h1.5
		c0,0.7-0.1,1.3-0.4,1.8c-0.3,0.5-0.7,0.9-1.3,1.2L481.7,87.5z M464.8,83.3h2.6V66.2c0.6-0.6,1.2-1.1,1.8-1.4s1.2-0.5,1.8-0.5
		c0.7,0,1.2,0.2,1.5,0.7c0.3,0.5,0.5,1.2,0.5,2.3v16.1h2.6V66.6c0-1.4-0.3-2.5-0.8-3.3s-1.3-1.2-2.4-1.2c-0.9,0-1.8,0.2-2.7,0.7
		c-0.9,0.4-1.6,1-2.3,1.8v-2.2h-2.6V83.3z M453.2,81.4c-0.7,0-1.3-0.3-1.7-0.8c-0.4-0.5-0.7-1.3-0.7-2.3c0-1,0.2-1.7,0.6-2.3
		c0.4-0.6,0.9-1.1,1.6-1.6c0.7-0.4,1.9-1.1,3.6-2v6.5c-0.4,0.7-0.8,1.3-1.4,1.7C454.6,81.2,453.9,81.4,453.2,81.4 M452.4,83.6
		c1,0,1.9-0.3,2.7-0.9c0.8-0.6,1.3-1.4,1.6-2.3l0.4,2.9h2.3c0-0.4-0.1-1-0.1-1.8c0-0.9-0.1-1.6-0.1-2.3V69.1c0-2.4-0.4-4.1-1.2-5.2
		c-0.8-1.1-2.1-1.7-3.9-1.7c-1.8,0-3.2,0.4-4.1,1.3s-1.4,2.3-1.5,4.3l0,0.6l2.6,0.1v-0.8c0-2.4,1-3.6,2.9-3.6c0.7,0,1.2,0.2,1.6,0.5
		c0.4,0.3,0.6,0.8,0.8,1.5c0.2,0.7,0.2,1.7,0.2,3v1.5c-2.3,1-4,1.9-5.1,2.6c-1.1,0.7-2,1.5-2.5,2.4c-0.5,0.9-0.8,2-0.8,3.4
		c0,1.3,0.4,2.4,1.2,3.3C450.1,83.2,451.1,83.6,452.4,83.6 M435,71.2v-1.4c0-1.5,0.1-2.6,0.3-3.4c0.2-0.8,0.5-1.4,0.9-1.7
		c0.4-0.3,1-0.5,1.8-0.5c0.8,0,1.4,0.2,1.8,0.6c0.4,0.4,0.7,1,0.8,1.7s0.2,1.7,0.2,3v1.7H435z M438,83.6c1.9,0,3.3-0.5,4.1-1.6
		s1.3-2.6,1.3-4.6v-1.2h-2.6v1.4c0,1.5-0.2,2.6-0.7,3.1c-0.5,0.6-1.2,0.9-2.1,0.9c-0.8,0-1.4-0.2-1.8-0.6c-0.4-0.4-0.7-1-0.9-1.9
		s-0.3-2-0.3-3.5v-3.1h8.4l0-1.9c0-2.1-0.2-3.7-0.5-4.9s-0.8-2.1-1.6-2.8s-1.9-0.9-3.3-0.9c-1.3,0-2.4,0.3-3.2,0.8
		c-0.8,0.5-1.4,1.3-1.8,2.5c-0.4,1.2-0.6,2.8-0.6,4.8v5.3c0,2,0.2,3.6,0.6,4.8c0.4,1.2,1,2,1.8,2.6C435.5,83.4,436.6,83.6,438,83.6
		 M424,83.3h2.6V54.2H424V83.3z M411.2,83.7c2.5,0,4.3-0.8,5.4-2.3c1-1.5,1.5-3.7,1.5-6.4v-1.7h-2.6v1.9c0,2.1-0.3,3.7-0.9,4.8
		c-0.6,1-1.7,1.6-3.4,1.6c-1.7,0-2.9-0.5-3.6-1.5c-0.7-1-1-2.7-1-4.9V62.6c0-1.4,0.1-2.6,0.4-3.5c0.2-0.9,0.7-1.7,1.4-2.2
		c0.7-0.5,1.6-0.8,2.9-0.8c1.2,0,2.1,0.2,2.7,0.7c0.6,0.5,1,1.2,1.3,2c0.2,0.9,0.3,2,0.3,3.4v1.7h2.6v-1.8c0-2.7-0.5-4.7-1.6-6.2
		s-2.8-2.1-5.3-2.1c-2.7,0-4.6,0.8-5.7,2.4c-1.1,1.6-1.6,3.8-1.6,6.8v11.6c0,2.9,0.5,5.1,1.6,6.7C406.6,82.9,408.5,83.7,411.2,83.7
		 M381,71.2v-1.4c0-1.5,0.1-2.6,0.3-3.4c0.2-0.8,0.5-1.4,0.9-1.7c0.4-0.3,1-0.5,1.8-0.5c0.8,0,1.4,0.2,1.8,0.6
		c0.4,0.4,0.7,1,0.8,1.7c0.1,0.7,0.2,1.7,0.2,3v1.7H381z M384,83.6c1.9,0,3.3-0.5,4.1-1.6s1.3-2.6,1.3-4.6v-1.2h-2.6v1.4
		c0,1.5-0.2,2.6-0.7,3.1c-0.5,0.6-1.2,0.9-2.1,0.9c-0.8,0-1.4-0.2-1.8-0.6c-0.4-0.4-0.7-1-0.9-1.9s-0.3-2-0.3-3.5v-3.1h8.4l0-1.9
		c0-2.1-0.1-3.7-0.4-4.9c-0.3-1.2-0.8-2.1-1.6-2.8s-1.9-0.9-3.3-0.9c-1.3,0-2.4,0.3-3.2,0.8c-0.8,0.5-1.4,1.3-1.8,2.5
		c-0.4,1.2-0.6,2.8-0.6,4.8v5.3c0,2,0.2,3.6,0.6,4.8c0.4,1.2,1,2,1.8,2.6S382.6,83.6,384,83.6 M362.1,81.3V68.9h4c3.1,0,4.7,2,4.7,6
		c0,1.5-0.1,2.8-0.4,3.7c-0.3,0.9-0.8,1.6-1.4,2s-1.6,0.7-2.9,0.7H362.1z M362.1,66.7V56.3h2.6c1.5,0,2.6,0.2,3.4,0.5
		c0.8,0.4,1.4,0.9,1.7,1.7c0.3,0.7,0.5,1.7,0.5,3c0,1.7-0.3,3-0.9,3.9s-1.7,1.3-3.3,1.3H362.1z M359.4,83.3h7.2
		c2.5,0,4.3-0.8,5.3-2.2c1-1.5,1.5-3.6,1.5-6.2c0-1.8-0.3-3.4-1-4.7s-1.8-2.2-3.4-2.6c1.3-0.3,2.3-1,2.8-2.1
		c0.6-1.1,0.9-2.5,0.9-4.1c0-2.3-0.6-4.1-1.7-5.4s-2.9-1.9-5.5-1.9h-6.3V83.3z"/>
</g>
</svg>
