<svg xmlns="http://www.w3.org/2000/svg" viewBox="0 0 100 100"><defs><style>.cls-1{fill:#231f20;}.cls-2{fill:#fff;}</style></defs><title>twitter-logo</title><g id="Layer_2" data-name="Layer 2"><g id="Layer_1-2" data-name="Layer 1"><rect id="Twitter" class="cls-1" width="100" height="100"/><path id="Twitter-2" data-name="Twitter" class="cls-2" d="M85,28.29a28.72,28.72,0,0,1-8.25,2.26,14.4,14.4,0,0,0,6.31-7.95,28.71,28.71,0,0,1-9.12,3.48,14.37,14.37,0,0,0-24.47,13.1,40.76,40.76,0,0,1-29.6-15,14.38,14.38,0,0,0,4.44,19.17,14.31,14.31,0,0,1-6.5-1.79c0,.06,0,.12,0,.18A14.37,14.37,0,0,0,29.33,55.82a14.39,14.39,0,0,1-6.49.25A14.37,14.37,0,0,0,36.26,66a28.8,28.8,0,0,1-17.84,6.15A29.18,29.18,0,0,1,15,72a40.64,40.64,0,0,0,22,6.45c26.42,0,40.86-21.88,40.86-40.86q0-.93,0-1.86A29.21,29.21,0,0,0,85,28.29Z"/></g></g></svg>