<svg xmlns="http://www.w3.org/2000/svg" viewBox="0 0 156.11 41.6"><defs><style>.cls-1{fill:#f04e37;}</style></defs><title>neverlate-logo</title><g id="Layer_2" data-name="Layer 2"><g id="Layer_1-2" data-name="Layer 1"><polygon class="cls-1" points="86.28 15.73 92.39 16.42 86.28 17.11 85.59 23.21 84.89 17.11 78.79 16.42 84.89 15.73 85.59 9.62 86.28 15.73"/><polygon class="cls-1" points="79.28 7.75 83.61 8.21 79.28 8.72 78.78 13.02 78.3 8.73 73.97 8.27 78.3 7.75 78.8 3.45 79.28 7.75"/><polygon class="cls-1" points="85.87 2.48 88.34 2.76 85.87 3.04 85.59 5.51 85.3 3.04 82.83 2.76 85.3 2.48 85.58 0 85.87 2.48"/><path class="cls-1" d="M29.38,25.16H36.1l-.76-4.49h-.4l.68,4H28.89v2.7h.49Zm0,7.88h8.1l-.67-4.49h-.41l.6,4h-8.1v2.82h.49Zm28,0h6V28.55h-.49v4h-6v2.82h.49ZM6.15,20.66,15,31.93V31.8L6.25,20.66ZM5.77,40.55H1V41H6.25V28.73l-.48-.62ZM155.62,20.66v4h-7.31v2.7h.49V25.16h7.31V20.66ZM148.8,33h7V28.55h-.49v4h-7v2.82h.49Zm-23.43-7.88h4.08v-.48h-4.27ZM20.79,40.55H15.62L16,41h5.28V20.66h-.49ZM99.27,20.66h-.49V35.37h.49Zm18.33,7.25-.32-1-1.83,5.34h.65ZM74.3,24.79A4,4,0,0,0,72,24.24h-1v4.38h.48V24.73h1a4.34,4.34,0,0,1,2,.41l-.1-.22s-.09-.09-.14-.13m46.23-4.13L128,40.55h-5.34l.18.49h5.65l-7.67-20.37ZM113.75,37l-1.4,3.54h-4.92l-.19.49h5.59l1.4-3.54h6.7l-.18-.49Zm-9.12,3.54H94V41h11.13l1.52-4.49H106ZM140.7,24.67h-5.41V40.55h-4.8V41h5.28V25.16h5.41V20.66h-.49Zm14.92,15.88H143.51V41h12.59V36.55h-.49ZM63.17,24.67H56.87v2.7h.49V25.16h6.29V20.66h-.48Zm0,15.88H51.06V41H63.65V36.55h-.48Zm-25.51-4,.59,4H24.09V41H38.73l-.66-4.49Zm41.71-5.07A6,6,0,0,0,81.23,27a6.62,6.62,0,0,0-1.74-4.49c-.12-.12-.24-.23-.36-.35a6.62,6.62,0,0,1,1.62,4.35A6,6,0,0,1,78.88,31a5.52,5.52,0,0,1-2.59,1.22l6.41,8.34H76.28l.31.49h6.6L76.77,32.7a5.54,5.54,0,0,0,2.59-1.22m-8.3,9.08h-4.8V41h5.28V33.65l-.48-.75Z"/><polygon class="cls-1" points="50.09 28.11 50.09 39.86 62.69 39.86 62.69 35.37 56.4 35.37 56.4 31.86 62.35 31.86 62.35 27.37 56.4 27.37 56.4 23.98 62.69 23.98 62.69 19.49 51.01 19.49 50.09 28.11"/><polygon class="cls-1" points="15.03 31.95 5.29 19.49 0 19.49 0 39.86 5.29 39.86 5.29 27.4 15.03 39.86 20.31 39.86 20.31 19.49 15.03 19.49 15.03 31.95"/><polygon class="cls-1" points="28.41 35.37 28.41 31.86 36.51 31.86 35.84 27.37 28.41 27.37 28.41 23.98 35.14 23.98 34.38 19.49 23.13 19.49 23.13 39.86 37.77 39.86 37.11 35.37 28.41 35.37"/><path class="cls-1" d="M78.4,30.3a6,6,0,0,0,1.86-4.52,6.6,6.6,0,0,0-1.74-4.49,6.33,6.33,0,0,0-5-1.8H65.3V39.86h5.28V32l5,7.82h6.6l-6.41-8.34A5.52,5.52,0,0,0,78.4,30.3m-4.58-2.23a3.79,3.79,0,0,1-2.26.55h-1V23.55h1a4,4,0,0,1,2.26.55,2.64,2.64,0,0,1,1,2,2.59,2.59,0,0,1-1,2"/><polygon class="cls-1" points="98.31 19.49 93.02 19.49 93.02 39.86 104.16 39.86 105.68 35.37 98.31 35.37 98.31 19.49"/><path class="cls-1" d="M114.1,19.49l-7.82,20.37h5.59l1.4-3.54h7.3l1.31,3.54h5.65l-7.67-20.37Zm.64,12.8L117,25.78l2.17,6.51Z"/><polygon class="cls-1" points="124.41 23.98 129.52 23.98 129.52 39.86 134.81 39.86 134.81 23.98 140.23 23.98 140.23 19.49 122.67 19.49 124.41 23.98"/><polygon class="cls-1" points="155.15 23.98 155.15 19.49 142.55 19.49 142.55 39.86 155.15 39.86 155.15 35.37 147.83 35.37 147.83 31.86 154.81 31.86 154.81 27.37 147.83 27.37 147.83 23.98 155.15 23.98"/><path class="cls-1" d="M50.09,8.08l-1.52,2.83.41.73-5.4,16.23L47,37.22a3,3,0,0,1,.08,1.07l2.59-26.5.67-.51Z"/><path class="cls-1" d="M46.28,37.71a3.1,3.1,0,1,1-6,1.57L36.89,16.75l-.7-.47.1-3.21,1.66,2.75-.37.75Zm-3.06,0a.94.94,0,1,0,.94.94.95.95,0,0,0-.94-.94"/></g></g></svg>